<svg width="18" height="18" viewBox="0 0 18 18" fill="none" xmlns="http://www.w3.org/2000/svg">
<path d="M17.9511 0.837214C17.9986 0.726928 18.0119 0.604925 17.9893 0.486991C17.9667 0.369057 17.9092 0.26062 17.8243 0.175711C17.7394 0.0908011 17.6309 0.0333267 17.513 0.0107239C17.395 -0.011879 17.273 0.00143011 17.1627 0.048929L0.363681 7.24788C0.251823 7.2958 0.157184 7.3766 0.092323 7.47956C0.0274617 7.58252 -0.00455509 7.70276 0.000522272 7.82434C0.00559963 7.94591 0.0475289 8.06307 0.120748 8.16026C0.193967 8.25746 0.295015 8.33009 0.410478 8.36852L7.32568 10.6734L9.62955 17.588C9.66775 17.7038 9.74036 17.8052 9.83769 17.8788C9.93502 17.9523 10.0524 17.9944 10.1743 17.9995C10.2962 18.0046 10.4167 17.9724 10.5198 17.9072C10.623 17.8421 10.7038 17.747 10.7515 17.6348L17.9511 0.837214Z" fill="white"/>
</svg>
